<svg xmlns="http://www.w3.org/2000/svg" xmlns:xlink="http://www.w3.org/1999/xlink" width="1370" height="379" viewBox="0 0 1370 379">
  <defs>
    <style>
      .cls-1, .cls-5, .cls-6 {
        fill: #fff;
      }

      .cls-1 {
        opacity: 0.235;
      }

      .cls-2 {
        fill: #f8f9fa;
      }

      .cls-3 {
        fill: #f0f0f0;
      }

      .cls-4 {
        fill: #e4f1f1;
      }

      .cls-6 {
        stroke: #707070;
      }

      .cls-7 {
        clip-path: url(#clip-path);
      }

      .cls-8 {
        clip-path: url(#clip-path-2);
      }

      .cls-9 {
        clip-path: url(#clip-path-3);
      }

      .cls-10 {
        clip-path: url(#clip-path-4);
      }

      .cls-11 {
        clip-path: url(#clip-path-5);
      }

      .cls-12 {
        clip-path: url(#clip-path-6);
      }

      .cls-13 {
        fill: rgba(0,0,0,0);
      }

      .cls-14, .cls-15, .cls-16 {
        fill: #a8d046;
      }

      .cls-14 {
        opacity: 0.5;
      }

      .cls-15 {
        opacity: 0.56;
      }

      .cls-17 {
        clip-path: url(#clip-path-7);
      }

      .cls-18 {
        clip-path: url(#clip-path-8);
      }

      .cls-19 {
        fill: rgba(255,255,255,0.3);
      }

      .cls-20 {
        fill: rgba(255,255,255,0.6);
      }
    </style>
    <clipPath id="clip-path">
      <rect id="Rectangle_111" data-name="Rectangle 111" class="cls-1" width="1370" height="379" transform="translate(0 187)"/>
    </clipPath>
    <clipPath id="clip-path-2">
      <rect id="Rectangle_52" data-name="Rectangle 52" class="cls-2" width="1186" height="349" transform="translate(0 0.21)"/>
    </clipPath>
    <clipPath id="clip-path-3">
      <rect id="Rectangle_50" data-name="Rectangle 50" class="cls-3" width="1186" height="350" transform="translate(0 -0.385)"/>
    </clipPath>
    <clipPath id="clip-path-4">
      <path id="Path_16" data-name="Path 16" class="cls-4" d="M301.223,1078.67l316.524,102.691L316.524,102.691,0,0Z" transform="translate(0 0)"/>
    </clipPath>
    <clipPath id="clip-path-5">
      <path id="Path_15" data-name="Path 15" class="cls-5" d="M-116.7,1121.812,1293.283,728.067,1410.2,367.693.214,761.438Z" transform="translate(0 0)"/>
    </clipPath>
    <clipPath id="clip-path-6">
      <path id="Path_14" data-name="Path 14" class="cls-5" d="M-142.945,450.375,1267.449,56.516l143.8-443.229L.853,7.147Z" transform="translate(0 0)"/>
    </clipPath>
    <clipPath id="clip-path-7">
      <rect id="Rectangle_110" data-name="Rectangle 110" class="cls-6" width="1369" height="152.889"/>
    </clipPath>
    <clipPath id="clip-path-8">
      <rect id="Rectangle_109" data-name="Rectangle 109" class="cls-6" width="1369" height="188"/>
    </clipPath>
  </defs>
  <g id="cutterVerdeCla" class="cls-7" transform="translate(0 -187)">
    <g id="Group_80" data-name="Group 80" transform="translate(-180 -198)">
      <g id="Group_79" data-name="Group 79" transform="translate(180 414.366)">
        <g id="Mask_Group_3" data-name="Mask Group 3" class="cls-8" transform="translate(0 0.424)">
          <g id="Mask_Group_2" data-name="Mask Group 2" class="cls-9" transform="translate(0 47.595)">
            <g id="Group_36" data-name="Group 36" transform="translate(-209.745 -109.884)">
              <g id="Mask_Group_1" data-name="Mask Group 1" class="cls-10" transform="matrix(-0.616, 0.788, -0.788, -0.616, 1311.248, 431.367)">
                <g id="cutter" class="cls-11" transform="translate(-411.729 1395.557) rotate(-90)">
                  <g id="cutter-blanco" class="cls-12" transform="translate(-15.463 799.987)">
                    <g id="custom_1" data-name="custom – 1" transform="translate(-56.341 15.916)">
                      <path id="Path_13" data-name="Path 13" class="cls-13" d="M-135.1,425.656,1269.749,33.346,1405.52-385.143.672,7.167Z" transform="translate(61.844 -16.947)"/>
                      <g id="Grupo_1" data-name="Grupo 1" transform="translate(-4.105 12.934)">
                        <path id="back" class="cls-14" d="M1503.044,406.247l-26.24,7.328c-46.828,4.635-172.447,40.9-291.676,129s-340.656,252.954-440.178,280.3c-99.837,28.324-193.025,12.755-302.274,32.2C330.322,873.111,307.7,926.842,199.726,980.248c-108.292,54.384-167.68,71.208-225.743,63.04L-79.423,1068.2l-48.315,148.922L1367.444,799.585l91.766-270.456" transform="translate(0 -814.659)"/>
                        <path id="middle" class="cls-15" d="M1422.417,470.891l-69.678,202.665-1460.7,407.908L-69.9,964.14l54.5-9.868c59.766-17.037,143.664-75.139,247.49-122.2,103.589-46.328,95.122-47.575,205.972-68.55C545.7,741.745,641,731.794,738.5,704.232c97.263-26.829,302.44-183.029,418.009-244.714s206.533-99.623,253.755-99.738l43.7,1.773" transform="translate(37.845 -695.053)"/>
                        <path id="front" class="cls-16" d="M1427.024,503.309l-66.605,193.115L-111.333,1107.417l48.657-149.976,44.265,13.974c47.179,4.162,312.557-169.7,424.438-191.441,108.61-22.442,234.517-29.736,332.746-57.484,98-27.051,305.635-152.138,417.687-222.491S1407.41,366.02,1454.32,358.937l26.588-7.425" transform="translate(-12.636 -676.14)"/>
                      </g>
                    </g>
                  </g>
                </g>
              </g>
              <path id="Path_17" data-name="Path 17" class="cls-16" d="M119.618,428.349l168.707,54.734L168.707,54.734,0,0Z" transform="matrix(0.616, -0.788, 0.788, 0.616, 45.733, 358.099)"/>
            </g>
          </g>
        </g>
      </g>
      <g id="cutter-2" data-name="cutter" class="cls-17" transform="translate(181 611.5)">
        <g id="cutter-blanco-2" data-name="cutter-blanco" class="cls-18" transform="translate(0 19.389)">
          <g id="custom_1-2" data-name="custom – 1" transform="translate(-54.903 0.22)">
            <rect id="Rectangle_108" data-name="Rectangle 108" class="cls-13" width="1364.012" height="177.544" transform="translate(60.236 0)"/>
            <g id="Grupo_1-2" data-name="Grupo 1" transform="translate(0 5.394)">
              <path id="back-2" data-name="back" class="cls-19" d="M1460.249,91.324h-25.477c-48.391-3.938-169.947-3.384-266.728,22.182s-276.087,73.627-372.869,73.42c-96.781.207-201.667-19.2-311.574-24.359-113.708-6.221-119.248,15.9-216.03,26.746-96.781,11.263-154.36,11.375-219.181,0L0,193.977v63.18H1451.72l4.292-114.218" transform="translate(0 -89.52)"/>
              <path id="middle-2" data-name="middle" class="cls-20" d="M1422.437,101.166l-4.193,85.469H0V136.86l54.773,2.5c57.908-.162,127.357-16.338,221.907-24.766,94.551-8.118,85.079-9.8,196.164-5.147,107.372,3.863,205.671,11.636,300.222,11.48,94.551.155,259.506-45.985,361.528-59.706s186-19.569,236.376-13.471l47.275,6.521" transform="translate(55.958 -18.98)"/>
              <path id="front-2" data-name="front" class="cls-5" d="M1433.192,84.887l-4.22,81.414H0V102.674L52.1,114.96c51.813,8.088,274.923-38.45,386.844-34.016,108.185,3.68,240.084,16.68,335.349,16.532,95.265.148,273.617-31.157,368.882-49.381s221.521-29.811,269.151-27h25.814" transform="translate(14.005 15.269)"/>
            </g>
          </g>
        </g>
      </g>
      <g id="cutter-3" data-name="cutter" class="cls-17" transform="translate(181 611.5)">
        <g id="cutter-blanco-3" data-name="cutter-blanco" class="cls-18" transform="translate(0 19.389)">
          <g id="custom_1-3" data-name="custom – 1" transform="translate(-54.903 0.22)">
            <rect id="Rectangle_121" data-name="Rectangle 121" class="cls-13" width="1364.012" height="177.544" transform="translate(60.236 0)"/>
            <g id="Grupo_1-3" data-name="Grupo 1" transform="translate(0 5.394)">
              <path id="back-3" data-name="back" class="cls-19" d="M1460.249,91.324h-25.477c-48.391-3.938-169.947-3.384-266.728,22.182s-276.087,73.627-372.869,73.42c-96.781.207-201.667-19.2-311.574-24.359-113.708-6.221-119.248,15.9-216.03,26.746-96.781,11.263-154.36,11.375-219.181,0L0,193.977v63.18H1451.72l4.292-114.218" transform="translate(0 -89.52)"/>
              <path id="middle-3" data-name="middle" class="cls-20" d="M1422.437,101.166l-4.193,85.469H0V136.86l54.773,2.5c57.908-.162,127.357-16.338,221.907-24.766,94.551-8.118,85.079-9.8,196.164-5.147,107.372,3.863,205.671,11.636,300.222,11.48,94.551.155,259.506-45.985,361.528-59.706s186-19.569,236.376-13.471l47.275,6.521" transform="translate(55.958 -18.98)"/>
              <path id="front-3" data-name="front" class="cls-5" d="M1433.192,84.887l-4.22,81.414H0V102.674L52.1,114.96c51.813,8.088,274.923-38.45,386.844-34.016,108.185,3.68,240.084,16.68,335.349,16.532,95.265.148,273.617-31.157,368.882-49.381s221.521-29.811,269.151-27h25.814" transform="translate(14.005 15.269)"/>
            </g>
          </g>
        </g>
      </g>
    </g>
  </g>
</svg>
