<svg xmlns="http://www.w3.org/2000/svg" xmlns:xlink="http://www.w3.org/1999/xlink" width="1366" height="266" viewBox="0 0 1366 266">
  <defs>
    <style>
      .cls-1, .cls-4 {
        fill: #fff;
      }

      .cls-1 {
        stroke: #707070;
      }

      .cls-2 {
        fill: #f0f0f0;
      }

      .cls-3 {
        fill: #e4f1f1;
      }

      .cls-5 {
        clip-path: url(#clip-path);
      }

      .cls-6 {
        clip-path: url(#clip-path-2);
      }

      .cls-7 {
        clip-path: url(#clip-path-3);
      }

      .cls-8 {
        clip-path: url(#clip-path-4);
      }

      .cls-9 {
        clip-path: url(#clip-path-5);
      }

      .cls-10 {
        fill: rgba(0,0,0,0);
      }

      .cls-11, .cls-12, .cls-13 {
        fill: #f58634;
      }

      .cls-11 {
        opacity: 0.5;
      }

      .cls-12 {
        opacity: 0.56;
      }

      .cls-14 {
        clip-path: url(#clip-path-6);
      }

      .cls-15 {
        clip-path: url(#clip-path-7);
      }

      .cls-16 {
        fill: rgba(255,255,255,0.3);
      }

      .cls-17 {
        fill: rgba(255,255,255,0.6);
      }
    </style>
    <clipPath id="clip-path">
      <rect id="Rectangle_131" data-name="Rectangle 131" class="cls-1" width="1366" height="266" transform="translate(0 7009)"/>
    </clipPath>
    <clipPath id="clip-path-2">
      <rect id="Rectangle_127" data-name="Rectangle 127" class="cls-2" width="1541" height="384" transform="translate(-0.105 -0.139)"/>
    </clipPath>
    <clipPath id="clip-path-3">
      <path id="Path_64" data-name="Path 64" class="cls-3" d="M0,0,381.788,156.43,840.645,1505.144l-381.788-156.43Z" transform="translate(0 0)"/>
    </clipPath>
    <clipPath id="clip-path-4">
      <path id="Path_63" data-name="Path 63" class="cls-4" d="M123.248,491.261l1762.973-599.8-178.1,434.679L-54.853,925.94Z" transform="translate(0 0)"/>
    </clipPath>
    <clipPath id="clip-path-5">
      <path id="Path_62" data-name="Path 62" class="cls-4" d="M158.386,489.383,1921.871-110.586,1702.822,424.031-60.662,1024Z"/>
    </clipPath>
    <clipPath id="clip-path-6">
      <rect id="Rectangle_126" data-name="Rectangle 126" class="cls-1" width="1366" height="152.889"/>
    </clipPath>
    <clipPath id="clip-path-7">
      <rect id="Rectangle_125" data-name="Rectangle 125" class="cls-1" width="1366" height="188"/>
    </clipPath>
  </defs>
  <g id="cutterNaranja" class="cls-5" transform="translate(0 -7009)">
    <g id="Group_99" data-name="Group 99" transform="translate(0 -33)">
      <g id="Mask_Group_29" data-name="Mask Group 29" class="cls-6" transform="translate(-79.895 6923.139)">
        <g id="Group_98" data-name="Group 98" transform="translate(-283.789 -440.106)">
          <g id="Mask_Group_28" data-name="Mask Group 28" class="cls-7" transform="matrix(-0.616, 0.788, -0.788, -0.616, 1703.622, 832.848)">
            <g id="cutter" class="cls-8" transform="translate(55.384 1864.022) rotate(-90)">
              <g id="cutter-blanco" class="cls-9" transform="translate(-57.722 56.995)">
                <g id="custom_1" data-name="custom – 1" transform="translate(-54.768 3.787)">
                  <path id="Path_61" data-name="Path 61" class="cls-10" d="M148.008,488.02l1756.55-597.61L1697.736,395.187-58.814,992.8Z" transform="translate(71.755 -4.129)"/>
                  <g id="Grupo_1" data-name="Grupo 1" transform="translate(-0.409 6.9)">
                    <path id="back" class="cls-11" d="M2014.7-115.927l-32.809,11.162c-57.73,10-214.912,64.837-369.327,179.926s-441.309,330.292-565.7,372.105C921.987,490.257,809.52,481.044,674,514.519,534.815,546.65,501.913,611.965,364.642,685.21,226.889,759.634,152.61,785.179,82.385,781.239L14.635,815.7l-73.6,179.628,1869.5-636.037,138.58-326.613" transform="translate(0 0)"/>
                    <path id="middle" class="cls-12" d="M1878.766,21.453,1773.8,266.288-52.585,887.658,5.4,746.143l67.627-16.9C147.786,703.413,256.065,627,387.643,561.608c131.217-64.5,120.981-65.144,258.611-100.577,133.772-36.059,251.3-57.027,373.247-98.9,121.58-40.984,387.755-244.436,535.121-328.146s262.324-137.129,320.094-141.862L1928-110.047" transform="translate(65.662 83.205)"/>
                    <path id="front" class="cls-13" d="M1885.4,70.417,1785.122,303.734-55.082,929.805l74.12-180.9,52.782,12.1c57.3.294,398.831-229.769,537.8-266.2,135.032-36.936,289.746-57.765,412.6-99.923,122.509-41.318,388.654-208.463,532.563-302.011s320-181.809,378.064-194.7l33.244-11.31" transform="translate(-2.077 99.002)"/>
                  </g>
                </g>
              </g>
            </g>
          </g>
          <path id="Path_65" data-name="Path 65" class="cls-13" d="M0,0,203.492,83.377,385.708,618.962,182.216,535.586Z" transform="matrix(0.616, -0.788, 0.788, 0.616, 59.419, 752.362)"/>
        </g>
      </g>
      <g id="cutter-2" data-name="cutter" class="cls-14" transform="translate(0 7154.611)">
        <g id="cutter-blanco-2" data-name="cutter-blanco" class="cls-15" transform="translate(0 19.389)">
          <g id="custom_1-2" data-name="custom – 1" transform="translate(-54.782 0.22)">
            <rect id="Rectangle_124" data-name="Rectangle 124" class="cls-10" width="1361.023" height="177.544" transform="translate(60.104 0)"/>
            <g id="Grupo_1-2" data-name="Grupo 1" transform="translate(0 5.394)">
              <path id="back-2" data-name="back" class="cls-16" d="M1457.049,91.324h-25.421c-48.285-3.938-169.574-3.384-266.143,22.182S890,187.133,793.433,186.926c-96.569.207-201.225-19.2-310.891-24.359-113.459-6.221-118.987,15.9-215.556,26.746-96.569,11.263-154.022,11.375-218.7,0L0,193.977v63.18H1448.539l4.283-114.218" transform="translate(0 -89.52)"/>
              <path id="middle-2" data-name="middle" class="cls-17" d="M1419.32,101.166l-4.184,85.469H0V136.86l54.653,2.5c57.781-.162,127.078-16.338,221.421-24.766,94.343-8.118,84.892-9.8,195.734-5.147,107.137,3.863,205.221,11.636,299.564,11.48,94.344.155,258.937-45.985,360.736-59.706S1317.7,41.649,1367.966,47.747l47.172,6.521" transform="translate(55.835 -18.98)"/>
              <path id="front-2" data-name="front" class="cls-4" d="M1430.051,84.887l-4.211,81.414H0V102.674L51.987,114.96c51.7,8.088,274.32-38.45,386-34.016,107.948,3.68,239.558,16.68,334.614,16.532,95.057.148,273.017-31.157,368.073-49.381s221.035-29.811,268.561-27h25.758" transform="translate(13.975 15.27)"/>
            </g>
          </g>
        </g>
      </g>
    </g>
  </g>
</svg>
