<svg xmlns="http://www.w3.org/2000/svg" xmlns:xlink="http://www.w3.org/1999/xlink" width="360" height="402.99" viewBox="0 0 360 402.99">
  <defs>
    <style>
      .cls-1 {
        fill: #f0f0f0;
      }

      .cls-1, .cls-2 {
        stroke: #707070;
      }

      .cls-2 {
        fill: #989898;
      }

      .cls-3 {
        fill: #00a859;
        font-size: 12px;
      }

      .cls-3, .cls-4 {
        font-family: OpenSans, Open Sans;
      }

      .cls-4, .cls-5 {
        fill: rgba(0,0,0,0.5);
      }

      .cls-4 {
        font-size: 20px;
      }

      .cls-5, .cls-6 {
        font-size: 16px;
        font-family: OpenSans-Light, Open Sans;
        font-weight: 300;
      }

      .cls-6 {
        fill: #a8d046;
        text-decoration: underline;
      }

      .cls-7 {
        stroke: none;
      }

      .cls-8 {
        fill: none;
      }

      .cls-9 {
        filter: url(#Rectangle_25);
      }
    </style>
    <filter id="Rectangle_25" x="0" y="0" width="360" height="402.99" filterUnits="userSpaceOnUse">
      <feOffset input="SourceAlpha"/>
      <feGaussianBlur stdDeviation="5" result="blur"/>
      <feFlood flood-opacity="0.502"/>
      <feComposite operator="in" in2="blur"/>
      <feComposite in="SourceGraphic"/>
    </filter>
  </defs>
  <g id="Group_100" data-name="Group 100" transform="translate(9 14.5)">
    <g class="cls-9" transform="matrix(1, 0, 0, 1, -9, -14.5)">
      <g id="Rectangle_25-2" data-name="Rectangle 25" class="cls-1" transform="translate(15 15)">
        <rect class="cls-7" width="330" height="372.99" rx="10"/>
        <rect class="cls-8" x="0.5" y="0.5" width="329" height="371.99" rx="9.5"/>
      </g>
    </g>
    <g id="IMG-20171118-WA0054" class="cls-2" transform="translate(6)">
      <path class="cls-7" d="M10,0H320a10,10,0,0,1,10,10V187a0,0,0,0,1,0,0H0a0,0,0,0,1,0,0V10A10,10,0,0,1,10,0Z"/>
      <path class="cls-8" d="M10,.5H320a9.5,9.5,0,0,1,9.5,9.5V186a.5.5,0,0,1-.5.5H1a.5.5,0,0,1-.5-.5V10A9.5,9.5,0,0,1,10,.5Z"/>
    </g>
    <text id="Fecha" class="cls-3" transform="translate(39 218)"><tspan x="-16.339" y="0">Fecha</tspan></text>
    <text id="Encabezado_Noticia" data-name="Encabezado Noticia" class="cls-4" transform="translate(111 250)"><tspan x="-91.157" y="0">Encabezado Noticia</tspan></text>
    <text id="Categorías" class="cls-5" transform="translate(54 316)"><tspan x="-38.035" y="0">Categorías</tspan></text>
    <text id="Leer_más" data-name="Leer más" class="cls-6" transform="translate(273 348)"><tspan x="-33.105" y="0">Leer más</tspan></text>
  </g>
</svg>
