<svg xmlns="http://www.w3.org/2000/svg" xmlns:xlink="http://www.w3.org/1999/xlink" width="416" height="208" viewBox="0 0 416 208">
  <defs>
    <style>
      .cls-1 {
        fill: #00a858;
      }

      .cls-2, .cls-4, .cls-6, .cls-9 {
        fill: #f4f4f4;
      }

      .cls-3 {
        fill: #f58634;
      }

      .cls-3, .cls-5 {
        font-size: 111px;
      }

      .cls-3, .cls-4, .cls-5 {
        font-family: Hind-Bold, Hind;
        font-weight: 700;
        letter-spacing: -0.08em;
      }

      .cls-4 {
        font-size: 130px;
      }

      .cls-5 {
        fill: #a8d046;
      }

      .cls-7 {
        fill: url(#linear-gradient);
      }

      .cls-10, .cls-8, .cls-9 {
        stroke: none;
      }

      .cls-10 {
        fill: #fff;
      }
    </style>
    <linearGradient id="linear-gradient" x1="0.181" y1="0.843" x2="0.864" y2="0.183" gradientUnits="objectBoundingBox">
      <stop offset="0" stop-color="#fcd618"/>
      <stop offset="1" stop-color="#f15f32"/>
    </linearGradient>
  </defs>
  <g id="adagro_4" data-name="adagro 4" transform="translate(-231 -159)">
    <path id="Path_18" data-name="Path 18" class="cls-1" d="M0,0H412V12H0Z" transform="translate(231 296)"/>
    <rect id="Rectangle_58" data-name="Rectangle 58" class="cls-2" width="41" height="18" transform="translate(390 294)"/>
    <ellipse id="Ellipse_1" data-name="Ellipse 1" class="cls-2" cx="7" cy="14" rx="7" ry="14" transform="translate(442.582 281.181) rotate(18)"/>
    <text id="ada" class="cls-3" transform="translate(231 291)"><tspan x="0" y="0">ada</tspan></text>
    <g id="gro" transform="translate(-189 -39)">
      <text id="g_blanca" data-name="g blanca" class="cls-4" transform="translate(568 335)"><tspan x="0" y="0">g</tspan></text>
      <text id="gro-2" data-name="gro" class="cls-5" transform="translate(577 330)"><tspan x="0" y="0">gro</tspan></text>
    </g>
    <g id="Circulo_fondo" data-name="Circulo fondo" class="cls-6" transform="translate(517 -1278)">
      <path class="cls-8" d="M 64.99980163574219 1567.499877929688 C 56.29226684570312 1567.499877929688 47.84538650512695 1565.794555664062 39.89376831054688 1562.431518554688 C 36.07184982299805 1560.814819335938 32.38570022583008 1558.81396484375 28.93773460388184 1556.484619140625 C 25.52226829528809 1554.177124023438 22.31048583984375 1551.527221679688 19.3916015625 1548.608276367188 C 16.47263526916504 1545.689208984375 13.82266807556152 1542.4775390625 11.51528453826904 1539.062133789062 C 9.185685157775879 1535.61376953125 7.184901714324951 1531.927612304688 5.568518161773682 1528.10595703125 C 2.205301523208618 1520.154541015625 0.5000016093254089 1511.707641601562 0.5000016093254089 1503 C 0.5000016093254089 1494.292358398438 2.205301523208618 1485.845458984375 5.568518161773682 1477.89404296875 C 7.184901714324951 1474.072387695312 9.185685157775879 1470.38623046875 11.51528453826904 1466.937866210938 C 13.82263469696045 1463.522705078125 16.47261810302734 1460.310913085938 19.3916187286377 1457.391723632812 C 22.3102855682373 1454.47314453125 25.52206802368164 1451.823120117188 28.93773460388184 1449.515502929688 C 32.38626861572266 1447.185791015625 36.07240295410156 1445.18505859375 39.89376831054688 1443.568725585938 C 47.84528350830078 1440.20556640625 56.29216766357422 1438.500244140625 64.99980163574219 1438.500244140625 C 73.70743560791016 1438.500244140625 82.15431976318359 1440.20556640625 90.10581970214844 1443.568725585938 C 93.92720031738281 1445.18505859375 97.61333465576172 1447.185791015625 101.0618667602539 1449.515502929688 C 104.4775314331055 1451.823120117188 107.6893157958984 1454.47314453125 110.6080017089844 1457.391723632812 C 113.526985168457 1460.310913085938 116.1769714355469 1463.522705078125 118.4843368530273 1466.937866210938 C 120.8139190673828 1470.38623046875 122.8147048950195 1474.072387695312 124.4310836791992 1477.89404296875 C 127.794303894043 1485.845458984375 129.4996032714844 1494.292358398438 129.4996032714844 1503 C 129.4996032714844 1511.707641601562 127.794303894043 1520.154541015625 124.4310836791992 1528.10595703125 C 122.8147048950195 1531.927612304688 120.8139190673828 1535.61376953125 118.4843215942383 1539.062133789062 C 116.1769332885742 1542.4775390625 113.526969909668 1545.689208984375 110.6080017089844 1548.608276367188 C 107.6891174316406 1551.527221679688 104.4773330688477 1554.177124023438 101.0618667602539 1556.484619140625 C 97.61389923095703 1558.81396484375 93.92774963378906 1560.814819335938 90.10581970214844 1562.431518554688 C 82.15422058105469 1565.794555664062 73.70733642578125 1567.499877929688 64.99980163574219 1567.499877929688 Z M 56.24700927734375 1522.795532226562 L 65.02114868164062 1552.143676757812 L 65.50022125244141 1553.74609375 L 65.979248046875 1552.143676757812 L 74.82537841796875 1522.552612304688 L 92.67874908447266 1530.030151367188 L 93.80458831787109 1530.501708984375 L 93.33308410644531 1529.375854492188 L 86.19667816162109 1512.335205078125 L 114.1435317993164 1503.9794921875 L 115.745849609375 1503.50048828125 L 114.1435165405273 1503.021484375 L 85.46859741210938 1494.448852539062 L 93.33309936523438 1475.669311523438 L 93.80455017089844 1474.543579101562 L 92.67874908447266 1475.015014648438 L 74.30606842041016 1482.709350585938 L 65.979248046875 1454.857177734375 L 65.50022125244141 1453.254760742188 L 65.02114868164062 1454.857177734375 L 56.76634216308594 1482.46728515625 L 38.97325134277344 1475.01513671875 L 37.84743499755859 1474.543579101562 L 38.31890106201172 1475.66943359375 L 46.11051177978516 1494.275146484375 L 16.85686874389648 1503.021484375 L 15.25455188751221 1503.50048828125 L 16.85688591003418 1503.9794921875 L 45.38330459594727 1512.507934570312 L 38.31892013549805 1529.375854492188 L 37.8474006652832 1530.501708984375 L 38.97325134277344 1530.030151367188 L 56.24700927734375 1522.795532226562 Z"/>
      <path class="cls-9" d="M 64.99980163574219 1566.999877929688 C 73.64005279541016 1566.999877929688 82.02141571044922 1565.307861328125 89.91101837158203 1561.970947265625 C 93.70323181152344 1560.366943359375 97.36074829101562 1558.381591796875 100.7819671630859 1556.0703125 C 104.1710662841797 1553.780639648438 107.3580703735352 1551.151123046875 110.2544326782227 1548.254760742188 C 113.1509017944336 1545.358276367188 115.7804489135742 1542.171264648438 118.0699996948242 1538.7822265625 C 120.3815383911133 1535.360595703125 122.3667678833008 1531.703125 123.970588684082 1527.911254882812 C 127.3076019287109 1520.021728515625 128.9996032714844 1511.640380859375 128.9996032714844 1503 C 128.9996032714844 1494.359619140625 127.3076019287109 1485.978271484375 123.970588684082 1478.088745117188 C 122.3667678833008 1474.296875 120.3815383911133 1470.639404296875 118.0700149536133 1467.2177734375 C 115.7804718017578 1463.828857421875 113.1509170532227 1460.641967773438 110.2544479370117 1457.745361328125 C 107.3582534790039 1454.84912109375 104.1712493896484 1452.219604492188 100.7819671630859 1449.929809570312 C 97.36018371582031 1447.6181640625 93.70268249511719 1445.632934570312 89.91104888916016 1444.029296875 C 82.02149963378906 1440.692260742188 73.64015197753906 1439.000244140625 64.99980163574219 1439.000244140625 C 56.35945129394531 1439.000244140625 47.97809982299805 1440.692260742188 40.08853530883789 1444.029296875 C 36.29691696166992 1445.632934570312 32.63941955566406 1447.6181640625 29.2176513671875 1449.929809570312 C 25.8283519744873 1452.219604492188 22.6413516998291 1454.84912109375 19.74516868591309 1457.745361328125 C 16.84868431091309 1460.641967773438 14.21913528442383 1463.828857421875 11.92960166931152 1467.2177734375 C 9.618068695068359 1470.639404296875 7.632834911346436 1474.296875 6.029018402099609 1478.088745117188 C 2.692001581192017 1485.978271484375 1.000001668930054 1494.359619140625 1.000001668930054 1503 C 1.000001668930054 1511.640380859375 2.692001581192017 1520.021728515625 6.029018402099609 1527.911254882812 C 7.632834911346436 1531.703125 9.618068695068359 1535.360595703125 11.92958450317383 1538.7822265625 C 14.21915149688721 1542.171264648438 16.84870147705078 1545.358276367188 19.74516868591309 1548.254760742188 C 22.64153480529785 1551.151123046875 25.82853507995605 1553.780639648438 29.2176342010498 1556.0703125 C 32.63885116577148 1558.381591796875 36.29636764526367 1560.366943359375 40.08855056762695 1561.970947265625 C 47.97818374633789 1565.307861328125 56.35955047607422 1566.999877929688 64.99980163574219 1566.999877929688 M 55.92724609375 1523.471557617188 L 39.16640090942383 1530.491333007812 L 36.9146842956543 1531.434448242188 L 37.85773468017578 1529.1826171875 L 44.70730972290039 1512.82763671875 L 16.71366882324219 1504.458618164062 L 13.50901794433594 1503.50048828125 L 16.71365165710449 1502.542358398438 L 45.43453979492188 1493.955444335938 L 37.85771942138672 1475.862548828125 L 36.91476821899414 1473.61083984375 L 39.16641998291016 1474.553955078125 L 56.44657897949219 1481.791259765625 L 64.54209899902344 1454.7138671875 L 65.50022125244141 1451.50927734375 L 66.45830535888672 1454.713989257812 L 74.62583923339844 1482.033447265625 L 92.48561859130859 1474.553833007812 L 94.73722076416016 1473.61083984375 L 93.79428863525391 1475.862426757812 L 86.14458465576172 1494.129150390625 L 114.286735534668 1502.542358398438 L 117.4914169311523 1503.50048828125 L 114.286750793457 1504.458618164062 L 86.8726806640625 1512.654907226562 L 93.79428863525391 1529.182739257812 L 94.73726654052734 1531.434448242188 L 92.48558807373047 1530.491333007812 L 75.1451416015625 1523.228637695312 L 66.45830535888672 1552.286865234375 L 65.50023651123047 1555.49169921875 L 64.54209899902344 1552.286865234375 L 55.92724609375 1523.471557617188 M 64.99980163574219 1567.999877929688 C 56.22506713867188 1567.999877929688 47.71265029907227 1566.281372070312 39.69900131225586 1562.891967773438 C 35.84725189208984 1561.2626953125 32.13246917724609 1559.246337890625 28.65783500671387 1556.89892578125 C 25.21606826782227 1554.57373046875 21.97950172424316 1551.9033203125 19.03805160522461 1548.961791992188 C 16.0967845916748 1546.0205078125 13.42636871337891 1542.784057617188 11.10096836090088 1539.342041015625 C 8.753401756286621 1535.867065429688 6.737084865570068 1532.15234375 5.108018398284912 1528.30078125 C 1.718585014343262 1520.287353515625 1.635742137295892e-06 1511.77490234375 1.635742137295892e-06 1503 C 1.635742137295892e-06 1494.22509765625 1.718585014343262 1485.712646484375 5.108018398284912 1477.69921875 C 6.737084865570068 1473.84765625 8.753401756286621 1470.132934570312 11.10096836090088 1466.657958984375 C 13.42610168457031 1463.216430664062 16.09651756286621 1459.979858398438 19.03805160522461 1457.038208007812 C 21.97960090637207 1454.0966796875 25.21616744995117 1451.426391601562 28.65783500671387 1449.101196289062 C 32.13288497924805 1446.753540039062 35.8476676940918 1444.737182617188 39.69900131225586 1443.108276367188 C 47.71268463134766 1439.71875 56.22510147094727 1438.000244140625 64.99980163574219 1438.000244140625 C 73.77449798583984 1438.000244140625 82.28691864013672 1439.71875 90.30059814453125 1443.108276367188 C 94.15193176269531 1444.737182617188 97.86672210693359 1446.753540039062 101.3417663574219 1449.101196289062 C 104.7834320068359 1451.426391601562 108.0200042724609 1454.0966796875 110.9615478515625 1457.038208007812 C 113.9030838012695 1459.979858398438 116.5735015869141 1463.216430664062 118.8986358642578 1466.657958984375 C 121.2462005615234 1470.132934570312 123.2625198364258 1473.84765625 124.8915863037109 1477.69921875 C 128.2810211181641 1485.712646484375 129.9996032714844 1494.22509765625 129.9996032714844 1503 C 129.9996032714844 1511.77490234375 128.2810211181641 1520.287353515625 124.8915863037109 1528.30078125 C 123.2625198364258 1532.15234375 121.2462005615234 1535.867065429688 118.8986358642578 1539.342041015625 C 116.5732345581055 1542.784057617188 113.9028167724609 1546.0205078125 110.9615478515625 1548.961791992188 C 108.0201034545898 1551.9033203125 104.7835311889648 1554.57373046875 101.3417663574219 1556.89892578125 C 97.86713409423828 1559.246337890625 94.15235137939453 1561.2626953125 90.30059814453125 1562.891967773438 C 82.28694915771484 1566.281372070312 73.7745361328125 1567.999877929688 64.99980163574219 1567.999877929688 Z M 56.56680297851562 1522.11962890625 L 56.56711959838867 1522.120727539062 L 65.50019836425781 1552.00048828125 L 74.50559997558594 1521.876586914062 L 92.87190246582031 1529.568969726562 L 85.52069854736328 1512.015380859375 L 114.0003051757812 1503.50048828125 L 84.7926025390625 1494.768676757812 L 92.87190246582031 1475.476196289062 L 73.98630523681641 1483.385375976562 L 65.50019836425781 1455.000366210938 L 57.08610153198242 1483.143310546875 L 38.78010177612305 1475.476318359375 L 46.78650283813477 1494.594970703125 L 17.00010108947754 1503.50048828125 L 46.05930328369141 1512.188110351562 L 38.78010177612305 1529.568969726562 L 56.5657844543457 1522.119995117188 L 56.56680297851562 1522.11962890625 Z"/>
    </g>
    <g id="Circulo_" data-name="Circulo " class="cls-7" transform="translate(521 -1274)">
      <path class="cls-8" d="M 61.00020217895508 1559.499755859375 C 52.83246231079102 1559.499755859375 44.90932464599609 1557.900268554688 37.45086288452148 1554.745727539062 C 33.86611175537109 1553.229370117188 30.40854072570801 1551.352661132812 27.17421722412109 1549.167724609375 C 23.97081756591797 1547.003540039062 20.95818710327148 1544.517944335938 18.22001838684082 1541.779907226562 C 15.48215579986572 1539.042114257812 12.99650955200195 1536.029541015625 10.83212566375732 1532.825805664062 C 8.646986961364746 1529.59130859375 6.770278930664062 1526.133666992188 5.254171371459961 1522.549194335938 C 2.099540710449219 1515.090942382812 0.5000022053718567 1507.16796875 0.5000022053718567 1499.00048828125 C 0.5000022053718567 1490.832763671875 2.099540710449219 1482.90966796875 5.254171371459961 1475.451171875 C 6.770463943481445 1471.8662109375 8.64715576171875 1468.408569335938 10.83212566375732 1465.174438476562 C 12.99641799926758 1461.970947265625 15.48206329345703 1458.958374023438 18.22001838684082 1456.22021484375 C 20.95789527893066 1453.482421875 23.97052574157715 1450.996704101562 27.17423248291016 1448.832397460938 C 30.40860176086426 1446.647338867188 33.86615753173828 1444.770629882812 37.45087814331055 1443.25439453125 C 44.90932464599609 1440.099731445312 52.83247756958008 1438.500244140625 61.00020217895508 1438.500244140625 C 69.167724609375 1438.500244140625 77.09074401855469 1440.099731445312 84.54917144775391 1443.25439453125 C 88.13385009765625 1444.770629882812 91.59140014648438 1446.647338867188 94.82579040527344 1448.832397460938 C 98.029541015625 1450.996704101562 101.0421905517578 1453.482421875 103.7800445556641 1456.22021484375 C 106.51806640625 1458.958374023438 109.0037384033203 1461.970947265625 111.1680450439453 1465.174438476562 C 113.3530654907227 1468.40869140625 115.2298049926758 1471.866333007812 116.7461242675781 1475.451171875 C 119.9008331298828 1482.90966796875 121.5004043579102 1490.832763671875 121.5004043579102 1499.00048828125 C 121.5004043579102 1507.16796875 119.9008331298828 1515.090942382812 116.7461242675781 1522.549194335938 C 115.229850769043 1526.133911132812 113.3531112670898 1529.591430664062 111.1680450439453 1532.825805664062 C 109.0036010742188 1536.029541015625 106.5179214477539 1539.042114257812 103.7800445556641 1541.779907226562 C 101.0422821044922 1544.517578125 98.02961730957031 1547.003173828125 94.82579040527344 1549.167724609375 C 91.59103393554688 1551.352905273438 88.13347625732422 1553.229614257812 84.54915618896484 1554.745727539062 C 77.09074401855469 1557.900268554688 69.167724609375 1559.499755859375 61.00020217895508 1559.499755859375 Z M 52.24740600585938 1518.7958984375 L 61.02066421508789 1548.143188476562 L 61.49967956542969 1549.74560546875 L 61.97875595092773 1548.143188476562 L 70.82575988769531 1518.553100585938 L 88.67826080322266 1526.029663085938 L 89.80406188964844 1526.501098632812 L 89.33258819580078 1525.375366210938 L 82.19618225097656 1508.334594726562 L 110.1430358886719 1499.978881835938 L 111.7453536987305 1499.499877929688 L 110.1430206298828 1499.020874023438 L 81.46807861328125 1490.448364257812 L 89.33258819580078 1471.668823242188 L 89.80409240722656 1470.54296875 L 88.67823028564453 1471.014526367188 L 70.30645751953125 1478.709838867188 L 61.97875595092773 1450.856689453125 L 61.49967956542969 1449.254272460938 L 61.02066421508789 1450.856689453125 L 52.76673889160156 1478.466796875 L 34.97275543212891 1471.014526367188 L 33.84690856933594 1470.54296875 L 34.31841659545898 1471.668823242188 L 42.11090087890625 1490.275512695312 L 12.85640239715576 1499.020874023438 L 11.25395584106445 1499.499877929688 L 12.8563871383667 1499.978881835938 L 41.38280487060547 1508.50732421875 L 34.31841659545898 1525.375366210938 L 33.84693908691406 1526.501098632812 L 34.97272491455078 1526.029663085938 L 52.24740600585938 1518.7958984375 Z"/>
      <path class="cls-10" d="M 61.00020217895508 1558.999755859375 C 69.10044860839844 1558.999755859375 76.95793914794922 1557.41357421875 84.3543701171875 1554.28515625 C 87.90896606445312 1552.78173828125 91.33790588378906 1550.920532226562 94.54588317871094 1548.75341796875 C 97.723388671875 1546.606689453125 100.7112503051758 1544.141479492188 103.4264984130859 1541.42626953125 C 106.1418533325195 1538.711059570312 108.6071014404297 1535.723266601562 110.7537384033203 1532.5458984375 C 112.9207382202148 1529.338256835938 114.7819366455078 1525.909423828125 116.2856216430664 1522.3544921875 C 119.4141159057617 1514.958129882812 121.0004043579102 1507.100708007812 121.0004043579102 1499.00048828125 C 121.0004043579102 1490.900024414062 119.4141159057617 1483.04248046875 116.2856216430664 1475.645874023438 C 114.7818984985352 1472.0908203125 112.9207000732422 1468.661865234375 110.7537536621094 1465.454345703125 C 108.6072387695312 1462.277221679688 106.1419830322266 1459.289428710938 103.4264831542969 1456.573852539062 C 100.7112045288086 1453.858520507812 97.72333526611328 1451.393310546875 94.5458984375 1449.246704101562 C 91.33827209472656 1447.079711914062 87.90935516357422 1445.218505859375 84.35438537597656 1443.71484375 C 76.95795440673828 1440.58642578125 69.10047149658203 1439.000244140625 61.00020217895508 1439.000244140625 C 52.89970397949219 1439.000244140625 45.0421028137207 1440.58642578125 37.64565277099609 1443.71484375 C 34.09065246582031 1445.218505859375 30.66173553466797 1447.079711914062 27.4541187286377 1449.246704101562 C 24.27678489685059 1451.393310546875 21.2889347076416 1453.8583984375 18.57358551025391 1456.573852539062 C 15.8581018447876 1459.289428710938 13.39290237426758 1462.277221679688 11.24643516540527 1465.454345703125 C 9.079535484313965 1468.661743164062 7.218385696411133 1472.090698242188 5.714668750762939 1475.645874023438 C 2.586252212524414 1483.04248046875 1.000002145767212 1490.900024414062 1.000002145767212 1499.00048828125 C 1.000002145767212 1507.100708007812 2.586252212524414 1514.958129882812 5.714668750762939 1522.3544921875 C 7.218202114105225 1525.9091796875 9.079368591308594 1529.338134765625 11.24643516540527 1532.5458984375 C 13.39303588867188 1535.723266601562 15.85823535919189 1538.711059570312 18.57356834411621 1541.42626953125 C 21.28923606872559 1544.141845703125 24.27708625793457 1546.607055664062 27.4541187286377 1548.75341796875 C 30.66165161132812 1550.920288085938 34.09058380126953 1552.781494140625 37.64565277099609 1554.28515625 C 45.04211807250977 1557.41357421875 52.89973449707031 1558.999755859375 61.00020217895508 1558.999755859375 M 51.92761611938477 1519.471923828125 L 35.16585159301758 1526.490844726562 L 32.91426849365234 1527.433715820312 L 33.85721969604492 1525.18212890625 L 40.70679473876953 1508.8271484375 L 12.71316909790039 1500.4580078125 L 9.508301734924316 1499.499877929688 L 12.71318531036377 1498.541748046875 L 41.43489837646484 1489.955810546875 L 33.85721969604492 1471.862060546875 L 32.91421890258789 1469.6103515625 L 35.16590118408203 1470.553344726562 L 52.44695281982422 1477.790771484375 L 60.54160308837891 1450.713500976562 L 61.4996337890625 1447.5087890625 L 62.45780181884766 1450.71337890625 L 70.62620544433594 1478.033813476562 L 88.48505401611328 1470.553344726562 L 90.73680114746094 1469.610229492188 L 89.79378509521484 1471.862060546875 L 82.14406585693359 1490.128662109375 L 110.2862319946289 1498.541748046875 L 113.4909210205078 1499.499877929688 L 110.2862548828125 1500.4580078125 L 82.87217712402344 1508.654418945312 L 89.79378509521484 1525.182250976562 L 90.73673248291016 1527.433837890625 L 88.48511505126953 1526.490844726562 L 71.14552307128906 1519.229125976562 L 62.45780181884766 1548.286499023438 L 61.4996337890625 1551.4912109375 L 60.54160308837891 1548.286376953125 L 51.92761611938477 1519.471923828125 M 61.00020217895508 1559.999755859375 C 52.76518630981445 1559.999755859375 44.77651977539062 1558.386962890625 37.256103515625 1555.206176757812 C 33.64168548583984 1553.677368164062 30.15548515319824 1551.78515625 26.89431953430176 1549.58203125 C 23.66445159912109 1547.400024414062 20.62703514099121 1544.893920898438 17.86646842956543 1542.133422851562 C 15.10613536834717 1539.373168945312 12.60005187988281 1536.335815429688 10.41781902313232 1533.105712890625 C 8.214735984802246 1529.844604492188 6.322485446929932 1526.358520507812 4.793668746948242 1522.744018554688 C 1.612818837165833 1515.223754882812 2.178955128329108e-06 1507.235229492188 2.178955128329108e-06 1499.00048828125 C 2.178955128329108e-06 1490.765502929688 1.612818837165833 1482.77685546875 4.793668746948242 1475.25634765625 C 6.322568893432617 1471.6416015625 8.214818954467773 1468.155395507812 10.41781902313232 1464.89453125 C 12.60000228881836 1461.66455078125 15.10608577728271 1458.627197265625 17.86646842956543 1455.86669921875 C 20.62673568725586 1453.1064453125 23.66413497924805 1450.600341796875 26.89431953430176 1448.418090820312 C 30.15518569946289 1446.215087890625 33.64138412475586 1444.32275390625 37.256103515625 1442.793823242188 C 44.7765007019043 1439.613037109375 52.76516723632812 1438.000244140625 61.00020217895508 1438.000244140625 C 69.23501586914062 1438.000244140625 77.22354888916016 1439.613037109375 84.74393463134766 1442.793823242188 C 88.35860443115234 1444.32275390625 91.84480285644531 1446.215087890625 95.10570526123047 1448.418090820312 C 98.3359375 1450.600341796875 101.3733673095703 1453.1064453125 104.1336059570312 1455.86669921875 C 106.8940200805664 1458.627197265625 109.4001388549805 1461.66455078125 111.5823669433594 1464.89453125 C 113.7854156494141 1468.155517578125 115.6777038574219 1471.641723632812 117.2066192626953 1475.25634765625 C 120.3875503540039 1482.77685546875 122.0004043579102 1490.765502929688 122.0004043579102 1499.00048828125 C 122.0004043579102 1507.235229492188 120.3875503540039 1515.223754882812 117.2066192626953 1522.744018554688 C 115.6777877807617 1526.3583984375 113.7854995727539 1529.844604492188 111.5823669433594 1533.105712890625 C 109.4000854492188 1536.335815429688 106.8939666748047 1539.373168945312 104.1336059570312 1542.133422851562 C 101.3730545043945 1544.893920898438 98.33561706542969 1547.39990234375 95.10570526123047 1549.58203125 C 91.84456634521484 1551.785034179688 88.35836791992188 1553.677368164062 84.74393463134766 1555.206176757812 C 77.22353363037109 1558.386962890625 69.23500061035156 1559.999755859375 61.00020217895508 1559.999755859375 Z M 52.56721878051758 1518.119995117188 L 52.56752014160156 1518.12109375 L 61.49970245361328 1548 L 70.50600433349609 1517.877075195312 L 88.87139892578125 1525.568481445312 L 81.52020263671875 1508.014892578125 L 109.9998016357422 1499.499877929688 L 80.79208374023438 1490.768188476562 L 88.87139892578125 1471.475708007812 L 69.98670196533203 1479.385864257812 L 61.49970245361328 1450.999877929688 L 53.08650207519531 1479.142822265625 L 34.77960205078125 1471.475708007812 L 42.78690338134766 1490.595336914062 L 12.99960231781006 1499.499877929688 L 42.05880355834961 1508.187622070312 L 34.77960205078125 1525.568481445312 L 52.56618499755859 1518.120361328125 L 52.56721878051758 1518.119995117188 Z"/>
    </g>
  </g>
</svg>
